<?xml version="1.0" encoding="iso-8859-1"?>
<!-- Generator: Adobe Illustrator 19.0.0, SVG Export Plug-In . SVG Version: 6.00 Build 0)  -->
<svg version="1.1" id="Capa_1" xmlns="http://www.w3.org/2000/svg" xmlns:xlink="http://www.w3.org/1999/xlink" x="0px" y="0px"
	 viewBox="0 0 512 512" style="enable-background:new 0 0 512 512;" xml:space="preserve">
<g>
	<g>
		<g>
			<path d="M468.825,201.896c-1.223-3.379-4.433-5.63-8.027-5.629h-34.133V25.6c-0.015-14.132-11.468-25.585-25.6-25.6h-85.333
				c-14.132,0.015-25.585,11.468-25.6,25.6v42.667H68.265c-14.132,0.015-25.585,11.468-25.6,25.6V486.4
				c0.015,14.132,11.468,25.585,25.6,25.6h187.733c2.264-0.01,4.433-0.91,6.039-2.506l119.454-119.454l0.029-0.036
				c0.68-0.705,1.231-1.523,1.63-2.418c0.11-0.264,0.205-0.533,0.287-0.807c0.254-0.727,0.407-1.485,0.455-2.253
				c0.012-0.184,0.106-0.34,0.106-0.527V279.91l82.263-68.552C469.023,209.059,470.048,205.275,468.825,201.896z M264.532,482.867
				v-81.8c0.005-4.711,3.822-8.529,8.533-8.533h81.8L264.532,482.867z M366.932,375.467h-93.867
				c-14.132,0.015-25.585,11.468-25.6,25.6v93.867h-179.2c-4.711-0.005-8.529-3.822-8.533-8.533V93.867
				c0.005-4.711,3.822-8.529,8.533-8.533h221.867v110.933h-34.133c-3.594-0.001-6.804,2.25-8.027,5.629
				c-1.223,3.38-0.198,7.163,2.564,9.463l102.4,85.333c3.166,2.633,7.759,2.633,10.925,0l3.071-2.559V375.467z M358.398,279.025
				l-78.829-65.692h19.096c2.263,0.001,4.434-0.898,6.035-2.499c1.6-1.6,2.499-3.771,2.499-6.035V25.6
				c0.005-4.711,3.822-8.529,8.533-8.533h85.333c4.711,0.005,8.529,3.822,8.533,8.533v179.2c-0.001,2.263,0.898,4.434,2.499,6.035
				c1.6,1.6,3.771,2.499,6.035,2.499h19.096L358.398,279.025z"/>
			<path d="M102.398,256h153.6c4.713,0,8.533-3.82,8.533-8.533s-3.82-8.533-8.533-8.533h-153.6c-4.713,0-8.533,3.82-8.533,8.533
				S97.685,256,102.398,256z"/>
			<path d="M102.398,298.667h204.8c4.713,0,8.533-3.82,8.533-8.533s-3.82-8.533-8.533-8.533h-204.8c-4.713,0-8.533,3.82-8.533,8.533
				S97.685,298.667,102.398,298.667z"/>
			<path d="M324.265,324.267H102.398c-4.713,0-8.533,3.821-8.533,8.533c0,4.713,3.82,8.533,8.533,8.533h221.867
				c4.713,0,8.533-3.821,8.533-8.533C332.798,328.087,328.978,324.267,324.265,324.267z"/>
			<path d="M213.332,366.933H102.398c-4.713,0-8.533,3.82-8.533,8.533s3.82,8.533,8.533,8.533h110.933
				c4.713,0,8.533-3.82,8.533-8.533S218.044,366.933,213.332,366.933z"/>
			<path d="M213.332,409.6H102.398c-4.713,0-8.533,3.82-8.533,8.533s3.82,8.533,8.533,8.533h110.933c4.713,0,8.533-3.82,8.533-8.533
				S218.044,409.6,213.332,409.6z"/>
		</g>
	</g>
</g>
<g>
</g>
<g>
</g>
<g>
</g>
<g>
</g>
<g>
</g>
<g>
</g>
<g>
</g>
<g>
</g>
<g>
</g>
<g>
</g>
<g>
</g>
<g>
</g>
<g>
</g>
<g>
</g>
<g>
</g>
</svg>
