<svg xmlns="http://www.w3.org/2000/svg" xmlns:xlink="http://www.w3.org/1999/xlink" version="1.1" preserveAspectRatio="xMidYMid meet" width="30" height="25" style=""><rect id="backgroundrect" width="100%" height="100%" x="0" y="0" fill="none" stroke="none"/><defs><path d="M29.86 0.02L29.97 0.04L30.07 0.07L30.17 0.11L30.27 0.15L30.36 0.21L30.45 0.27L30.53 0.33L30.6 0.4L30.68 0.48L30.74 0.56L30.8 0.65L30.85 0.74L30.89 0.84L30.93 0.94L30.96 1.04L30.98 1.15L31 1.26L31 1.37L31 19.08L31 19.2L30.98 19.31L30.96 19.42L30.93 19.52L30.89 19.62L30.85 19.72L30.8 19.81L30.74 19.9L30.67 19.98L30.6 20.06L30.52 20.13L30.44 20.19L30.35 20.25L30.26 20.31L30.17 20.35L30.07 20.39L29.96 20.42L29.85 20.44L29.75 20.45L29.63 20.46L14.64 20.46L10.73 24.93L10.65 25.01L10.57 25.08L10.49 25.14L10.4 25.2L10.31 25.24L10.21 25.28L10.12 25.31L10.02 25.33L9.93 25.35L9.83 25.35L9.73 25.35L9.63 25.34L9.54 25.31L9.44 25.28L9.35 25.25L9.26 25.2L9.17 25.14L9.09 25.08L9.01 25.01L8.93 24.93L5.09 20.46L2.36 20.46L2.25 20.45L2.14 20.44L2.03 20.42L1.93 20.39L1.83 20.35L1.73 20.3L1.64 20.25L1.56 20.19L1.47 20.13L1.4 20.06L1.33 19.98L1.26 19.9L1.2 19.81L1.15 19.72L1.11 19.62L1.07 19.52L1.04 19.41L1.02 19.31L1 19.2L1 19.08L1 1.37L1 1.3L1.01 1.22L1.03 1.15L1.05 1.08L1.09 1L1.12 0.93L1.17 0.86L1.22 0.79L1.28 0.72L1.34 0.65L1.41 0.58L1.49 0.51L1.58 0.45L1.67 0.38L1.77 0.32L1.87 0.25L1.99 0.19L2.11 0.12L2.23 0.06L2.37 0L29.63 0L29.75 0L29.86 0.02ZM2.36 19.09L5.79 19.09L9.83 23.95L14.24 19.09L29.64 19.09L29.64 1.36L2.36 1.36L2.36 19.09Z" id="hH54cmnp7"/><path d="M15.29 14.19C15.29 15.13 16.05 15.89 16.99 15.89C17.93 15.89 18.69 15.13 18.69 14.19C18.69 13.58 18.69 10.56 18.69 5.11C18.68 5.11 18.68 5.11 18.68 5.11C18.6 3.68 17.42 2.54 15.97 2.54C14.52 2.54 13.34 3.68 13.26 5.11C13.26 5.11 13.26 5.11 13.25 5.11C13.25 10.46 13.25 13.44 13.25 14.04C13.25 16.14 14.91 17.85 16.95 17.85C18.99 17.85 20.65 16.14 20.65 14.04C20.65 13.42 20.65 10.34 20.65 4.8L19.71 4.8C19.71 10.34 19.71 13.42 19.71 14.04C19.71 15.62 18.47 16.91 16.95 16.91C15.43 16.91 14.19 15.62 14.19 14.04C14.19 13.16 14.19 6.14 14.19 5.26C14.19 4.28 14.99 3.48 15.97 3.48C16.95 3.48 17.76 4.28 17.76 5.26C17.76 6.15 17.76 13.3 17.76 14.19C17.76 14.61 17.41 14.95 16.99 14.95C16.57 14.95 16.23 14.61 16.23 14.19C16.23 13.66 16.23 10.99 16.23 6.19L15.29 6.19C15.29 10.99 15.29 13.66 15.29 14.19Z" id="a8Y9iGf6rn"/></defs><g class="currentLayer" style=""><title>Layer 1</title><g id="svg_1" class=""><g id="svg_2"><use xlink:href="#hH54cmnp7" opacity="1" fill="#000000" fill-opacity="1" id="svg_3" y="0" x="-1"/><g id="svg_4"><use xlink:href="#hH54cmnp7" opacity="1" fill-opacity="0" stroke="#000000" stroke-width="1" stroke-opacity="0" id="svg_5" y="0" x="-1"/></g></g><g id="svg_6"><use xlink:href="#a8Y9iGf6rn" opacity="1" fill="#000000" fill-opacity="1" id="svg_7" y="0" x="-1"/><g id="svg_8"><use xlink:href="#a8Y9iGf6rn" opacity="1" fill-opacity="0" stroke="#000000" stroke-width="1" stroke-opacity="0" id="svg_9" y="0" x="-1"/></g></g></g></g></svg>