<?xml version="1.0" encoding="UTF-8" standalone="no"?>
<!DOCTYPE svg PUBLIC "-//W3C//DTD SVG 1.1//EN" "http://www.w3.org/Graphics/SVG/1.1/DTD/svg11.dtd">
<svg version="1.1" xmlns="http://www.w3.org/2000/svg" xmlns:xlink="http://www.w3.org/1999/xlink" preserveAspectRatio="xMidYMid meet" viewBox="0 0 640 640" width="640" height="640"><defs><path d="M325.57 166.19C329.86 166.19 333.33 162.72 333.33 158.44C333.33 154.15 329.86 150.67 325.57 150.67C310.06 150.67 185.99 150.67 170.48 150.67C166.19 150.67 162.72 154.15 162.72 158.44C162.72 162.72 166.19 166.19 170.48 166.19C201.5 166.19 310.06 166.19 325.57 166.19Z" id="a2Lq2KUh3"></path><path d="M202.74 203.36C198.46 203.36 194.98 206.83 194.98 211.12C194.98 215.4 198.46 218.88 202.74 218.88C217.27 218.88 333.55 218.88 348.09 218.88C352.37 218.88 355.84 215.4 355.84 211.12C355.84 206.83 352.37 203.36 348.09 203.36C319.02 203.36 217.27 203.36 202.74 203.36Z" id="g2KwkhfrfN"></path><path d="M170.48 256.05C166.19 256.05 162.72 259.52 162.72 263.81C162.72 268.09 166.19 271.56 170.48 271.56C184.1 271.56 293.07 271.56 306.7 271.56C310.97 271.56 314.45 268.09 314.45 263.81C314.45 259.52 310.97 256.05 306.7 256.05C279.45 256.05 184.1 256.05 170.48 256.05Z" id="a2bfjkw2IN"></path><path d="M401.23 86.46L403.42 86.66L405.59 86.95L407.72 87.31L409.83 87.75L411.91 88.27L413.95 88.86L415.96 89.52L417.93 90.25L419.86 91.05L421.75 91.91L423.6 92.84L425.41 93.83L427.17 94.89L428.88 96.01L430.55 97.18L432.16 98.41L433.72 99.7L435.22 101.04L436.67 102.43L438.07 103.87L439.4 105.36L440.67 106.9L441.87 108.49L443.02 110.11L444.09 111.78L445.1 113.49L446.03 115.24L446.9 117.03L447.69 118.85L448.4 120.71L449.04 122.6L449.59 124.52L450.07 126.47L450.47 128.45L450.78 130.45L451 132.48L451.13 134.53L451.18 136.6L451.18 291.43L451.14 293.4L451.02 295.35L450.81 297.28L450.53 299.19L450.17 301.08L449.74 302.94L449.23 304.77L448.66 306.58L448.01 308.36L447.29 310.11L446.5 311.83L445.65 313.51L444.73 315.17L443.75 316.78L442.71 318.36L441.6 319.9L440.44 321.39L439.22 322.85L437.95 324.27L436.62 325.64L435.24 326.96L433.81 328.24L432.33 329.47L430.8 330.65L429.23 331.77L427.61 332.85L425.95 333.87L424.24 334.83L422.5 335.74L420.71 336.59L418.89 337.38L417.03 338.11L415.14 338.78L413.22 339.38L411.26 339.92L409.28 340.39L407.26 340.79L405.22 341.13L403.16 341.39L401.07 341.58L401.07 425.71L281.26 341.72L115.23 341.72L112.99 341.68L110.77 341.56L108.58 341.35L106.41 341.06L104.28 340.7L102.17 340.26L100.09 339.74L98.05 339.15L96.04 338.49L94.07 337.76L92.14 336.97L90.25 336.1L88.4 335.17L86.59 334.18L84.83 333.12L83.12 332.01L81.45 330.83L79.84 329.6L78.28 328.31L76.78 326.98L75.33 325.58L73.94 324.14L72.6 322.65L71.33 321.11L70.13 319.53L68.99 317.9L67.91 316.23L66.9 314.52L65.97 312.77L65.1 310.99L64.31 309.16L63.6 307.31L62.96 305.42L62.41 303.5L61.93 301.55L61.54 299.57L61.23 297.57L61 295.55L60.87 293.5L60.82 291.43L60.82 136.6L60.87 134.53L61 132.48L61.23 130.45L61.54 128.45L61.93 126.47L62.41 124.52L62.96 122.6L63.6 120.71L64.31 118.85L65.1 117.03L65.97 115.24L66.9 113.49L67.91 111.78L68.99 110.11L70.13 108.49L71.33 106.9L72.6 105.36L73.94 103.87L75.33 102.43L76.78 101.04L78.28 99.7L79.84 98.41L81.45 97.18L83.12 96.01L84.83 94.89L86.59 93.83L88.4 92.84L90.25 91.91L92.14 91.05L94.07 90.25L96.04 89.52L98.05 88.86L100.09 88.27L102.17 87.75L104.28 87.31L106.41 86.95L108.58 86.66L110.77 86.46L112.99 86.33L115.23 86.29L396.78 86.29L399.01 86.33L401.23 86.46ZM113.94 109.58L112.67 109.65L111.42 109.76L110.18 109.92L108.96 110.11L107.75 110.35L106.56 110.62L105.4 110.94L104.25 111.3L103.12 111.69L102.01 112.12L100.93 112.58L99.87 113.08L98.84 113.62L97.83 114.18L96.85 114.78L95.9 115.41L94.98 116.07L94.08 116.77L93.22 117.49L92.39 118.23L91.6 119.01L90.83 119.81L90.11 120.64L89.42 121.49L88.76 122.36L88.15 123.26L87.57 124.18L87.04 125.12L86.54 126.08L86.09 127.06L85.68 128.06L85.32 129.07L85 130.11L84.73 131.15L84.5 132.22L84.32 133.29L84.2 134.38L84.12 135.48L84.09 136.6L84.09 291.43L84.12 292.54L84.2 293.64L84.32 294.73L84.5 295.8L84.73 296.87L85 297.91L85.32 298.94L85.68 299.96L86.09 300.96L86.54 301.94L87.04 302.9L87.57 303.84L88.15 304.75L88.76 305.65L89.42 306.53L90.11 307.38L90.83 308.2L91.6 309L92.39 309.78L93.22 310.53L94.08 311.25L94.98 311.94L95.9 312.6L96.85 313.23L97.83 313.83L98.84 314.4L99.87 314.93L100.93 315.43L102.01 315.89L103.12 316.32L104.25 316.72L105.4 317.07L106.56 317.39L107.75 317.66L108.96 317.9L110.18 318.1L111.42 318.25L112.67 318.36L113.94 318.43L115.22 318.45L288.6 318.45L377.8 380.97L377.8 318.45L396.78 318.45L397.63 318.43L398.48 318.38L399.33 318.3L400.17 318.18L401.01 318.03L401.85 317.84L402.68 317.62L403.51 317.37L404.34 317.08L405.16 316.76L405.97 316.41L406.78 316.02L407.59 315.6L408.4 315.14L409.2 314.65L409.99 314.13L410.78 313.57L411.57 312.98L412.36 312.35L413.14 311.69L413.91 311L414.69 310.28L415.45 309.52L416.22 308.72L416.98 307.89L417.74 307.03L418.49 306.14L419.24 305.21L419.98 304.25L420.72 303.25L421.46 302.22L422.19 301.16L422.92 300.06L423.64 298.93L424.36 297.76L425.08 296.56L425.79 295.33L426.5 294.06L427.21 292.76L427.91 291.43L427.91 136.6L427.88 135.48L427.8 134.38L427.67 133.29L427.5 132.22L427.27 131.15L427 130.11L426.68 129.07L426.32 128.06L425.91 127.06L425.45 126.08L424.96 125.12L424.42 124.18L423.85 123.26L423.23 122.36L422.58 121.49L421.89 120.64L421.16 119.81L420.4 119.01L419.6 118.23L418.78 117.49L417.91 116.77L417.02 116.08L416.1 115.41L415.15 114.78L414.17 114.18L413.16 113.62L412.12 113.08L411.07 112.58L409.98 112.12L408.88 111.69L407.75 111.3L406.6 110.94L405.43 110.62L404.25 110.35L403.04 110.11L401.82 109.92L400.58 109.76L399.32 109.65L398.06 109.58L396.78 109.56L115.22 109.56L113.94 109.58Z" id="d5tVDKGMC"></path><path d="M113.01 281.67C113.01 287.82 118.01 292.82 124.17 292.82C130.32 292.82 135.32 287.82 135.32 281.67C135.32 277.69 135.32 257.81 135.32 222.02C135.29 222.02 135.27 222.02 135.27 222.02C134.74 212.65 126.97 205.18 117.47 205.18C107.96 205.18 100.2 212.65 99.67 222.02C99.67 222.02 99.65 222.02 99.62 222.02C99.62 257.2 99.62 276.75 99.62 280.66C99.62 294.46 110.51 305.68 123.9 305.68C137.29 305.68 148.18 294.46 148.18 280.66C148.18 276.61 148.18 256.4 148.18 220L142.05 220C142.05 256.4 142.05 276.61 142.05 280.66C142.05 291.07 133.91 299.55 123.9 299.55C113.89 299.55 105.75 291.08 105.75 280.66C105.75 274.9 105.75 228.8 105.75 223.03C105.75 216.57 111.01 211.32 117.47 211.32C123.93 211.32 129.19 216.57 129.19 223.03C129.19 228.9 129.19 275.81 129.19 281.67C129.19 284.44 126.94 286.69 124.17 286.69C121.4 286.69 119.15 284.44 119.15 281.67C119.15 278.16 119.15 260.64 119.15 229.1L113.01 229.1C113.01 260.64 113.01 278.16 113.01 281.67Z" id="d2ozfyWfJU"></path></defs><g><g><g><use xlink:href="#a2Lq2KUh3" opacity="1" fill="#000000" fill-opacity="1"></use><g><use xlink:href="#a2Lq2KUh3" opacity="1" fill-opacity="0" stroke="#000000" stroke-width="1" stroke-opacity="0"></use></g></g><g><use xlink:href="#g2KwkhfrfN" opacity="1" fill="#000000" fill-opacity="1"></use><g><use xlink:href="#g2KwkhfrfN" opacity="1" fill-opacity="0" stroke="#000000" stroke-width="1" stroke-opacity="0"></use></g></g><g><use xlink:href="#a2bfjkw2IN" opacity="1" fill="#000000" fill-opacity="1"></use><g><use xlink:href="#a2bfjkw2IN" opacity="1" fill-opacity="0" stroke="#000000" stroke-width="1" stroke-opacity="0"></use></g></g><g><use xlink:href="#d5tVDKGMC" opacity="1" fill="#000000" fill-opacity="1"></use><g><use xlink:href="#d5tVDKGMC" opacity="1" fill-opacity="0" stroke="#000000" stroke-width="1" stroke-opacity="0"></use></g></g><g><use xlink:href="#d2ozfyWfJU" opacity="1" fill="#000000" fill-opacity="1"></use><g><use xlink:href="#d2ozfyWfJU" opacity="1" fill-opacity="0" stroke="#000000" stroke-width="1" stroke-opacity="0"></use></g></g></g></g></svg>