<?xml version="1.0" encoding="utf-8"?>
<!-- Generator: Adobe Illustrator 21.0.0, SVG Export Plug-In . SVG Version: 6.00 Build 0)  -->
<svg version="1.1" id="Layer_1" xmlns="http://www.w3.org/2000/svg" xmlns:xlink="http://www.w3.org/1999/xlink" x="0px" y="0px"
	 viewBox="0 0 30 25" style="enable-background:new 0 0 30 25;" xml:space="preserve">
<style type="text/css">
	.st0{fill:none;}
	.st1{fill-opacity:0;stroke:#000000;stroke-opacity:0;}
	.st2{display:none;}
	.st3{display:inline;}
</style>
<rect id="backgroundrect" y="0" class="st0" width="30" height="25"/>
<g>
	<title>Layer 1</title>
	<g id="svg_1">
		<g id="svg_2">
			<g id="svg_3">
				<path id="hH54cmnp7" d="M28.9,0L29,0l0.1,0l0.1,0l0.1,0l0.1,0.1l0.1,0.1l0.1,0.1l0.1,0.1l0.1,0.1l0.1,0.1l0.1,0.1l0.1,0.1l0,0.1
					l0,0.1L30,1l0,0.1l0,0.1v0.1v17.7v0.1l0,0.1l0,0.1l0,0.1l0,0.1l0,0.1l-0.1,0.1l-0.1,0.1L29.7,20l-0.1,0.1l-0.1,0.1l-0.1,0.1
					l-0.1,0.1l-0.1,0.1l-0.1,0l-0.1,0l-0.1,0l-0.1,0l-0.1,0l-0.1,0h-15l-3.9,4.5L9.6,25l-0.1,0.1l-0.1,0.1l-0.1,0.1l-0.1,0l-0.1,0
					l-0.1,0l-0.1,0l-0.1,0H8.8H8.7l-0.1,0l-0.1,0l-0.1,0l-0.1,0l-0.1,0l-0.1-0.1l-0.1-0.1L8,25l-0.1-0.1l-3.8-4.5H1.4l-0.1,0l-0.1,0
					l-0.1,0l-0.1,0l-0.1,0l-0.1-0.1l-0.1,0l-0.1-0.1l-0.1-0.1l-0.1-0.1L0.3,20l-0.1-0.1l-0.1-0.1l-0.1-0.1l0-0.1l0-0.1l0-0.1l0-0.1
					l0-0.1v-0.1V1.4V1.3l0-0.1l0-0.1l0-0.1l0-0.1l0-0.1l0-0.1l0.1-0.1l0.1-0.1l0.1-0.1l0.1-0.1l0.1-0.1l0.1-0.1l0.1-0.1l0.1-0.1
					l0.1-0.1L1,0.2l0.1-0.1l0.1-0.1L1.4,0h27.3h0.1L28.9,0z M1.4,19.1h3.4l4,4.9l4.4-4.9h15.4V1.4H1.4V19.1z"/>
			</g>
			<g id="svg_4">
				<g id="svg_5">
					<path id="hH54cmnp7_1_" class="st1" d="M28.9,0L29,0l0.1,0l0.1,0l0.1,0l0.1,0.1l0.1,0.1l0.1,0.1l0.1,0.1l0.1,0.1l0.1,0.1
						l0.1,0.1l0.1,0.1l0,0.1l0,0.1L30,1l0,0.1l0,0.1v0.1v17.7v0.1l0,0.1l0,0.1l0,0.1l0,0.1l0,0.1l-0.1,0.1l-0.1,0.1L29.7,20
						l-0.1,0.1l-0.1,0.1l-0.1,0.1l-0.1,0.1l-0.1,0.1l-0.1,0l-0.1,0l-0.1,0l-0.1,0l-0.1,0l-0.1,0h-15l-3.9,4.5L9.6,25l-0.1,0.1
						l-0.1,0.1l-0.1,0.1l-0.1,0l-0.1,0l-0.1,0l-0.1,0l-0.1,0H8.8H8.7l-0.1,0l-0.1,0l-0.1,0l-0.1,0l-0.1,0l-0.1-0.1l-0.1-0.1L8,25
						l-0.1-0.1l-3.8-4.5H1.4l-0.1,0l-0.1,0l-0.1,0l-0.1,0l-0.1,0l-0.1-0.1l-0.1,0l-0.1-0.1l-0.1-0.1l-0.1-0.1L0.3,20l-0.1-0.1
						l-0.1-0.1l-0.1-0.1l0-0.1l0-0.1l0-0.1l0-0.1l0-0.1v-0.1V1.4V1.3l0-0.1l0-0.1l0-0.1l0-0.1l0-0.1l0-0.1l0.1-0.1l0.1-0.1l0.1-0.1
						l0.1-0.1l0.1-0.1l0.1-0.1l0.1-0.1l0.1-0.1l0.1-0.1L1,0.2l0.1-0.1l0.1-0.1L1.4,0h27.3h0.1L28.9,0z M1.4,19.1h3.4l4,4.9l4.4-4.9
						h15.4V1.4H1.4V19.1z"/>
				</g>
			</g>
		</g>
		<g id="svg_6" class="st2">
			<g id="svg_7" class="st3">
				<path id="a8Y9iGf6rn" d="M7.1,4.4c-0.9,0-1.7,0.8-1.7,1.7s0.8,1.7,1.7,1.7c0.6,0,3.6,0,9.1,0c0,0,0,0,0,0
					c1.4-0.1,2.6-1.3,2.6-2.7s-1.1-2.6-2.6-2.7c0,0,0,0,0,0c-5.4,0-8.3,0-8.9,0C5.2,2.4,3.4,4,3.4,6.1s1.7,3.7,3.8,3.7
					c0.6,0,3.7,0,9.2,0V8.8c-5.5,0-8.6,0-9.2,0c-1.6,0-2.9-1.2-2.9-2.8c0-1.5,1.3-2.8,2.9-2.8c0.9,0,7.9,0,8.8,0
					c1,0,1.8,0.8,1.8,1.8S17,6.9,16,6.9c-0.9,0-8,0-8.9,0c-0.4,0-0.8-0.4-0.8-0.8s0.3-0.8,0.8-0.8c0.5,0,3.2,0,8,0V4.4
					C10.3,4.4,7.6,4.4,7.1,4.4z"/>
			</g>
			<g id="svg_8" class="st3">
				<g id="svg_9">
					<path id="a8Y9iGf6rn_1_" class="st1" d="M7.1,4.4c-0.9,0-1.7,0.8-1.7,1.7s0.8,1.7,1.7,1.7c0.6,0,3.6,0,9.1,0c0,0,0,0,0,0
						c1.4-0.1,2.6-1.3,2.6-2.7s-1.1-2.6-2.6-2.7c0,0,0,0,0,0c-5.4,0-8.3,0-8.9,0C5.2,2.4,3.4,4,3.4,6.1s1.7,3.7,3.8,3.7
						c0.6,0,3.7,0,9.2,0V8.8c-5.5,0-8.6,0-9.2,0c-1.6,0-2.9-1.2-2.9-2.8c0-1.5,1.3-2.8,2.9-2.8c0.9,0,7.9,0,8.8,0
						c1,0,1.8,0.8,1.8,1.8S17,6.9,16,6.9c-0.9,0-8,0-8.9,0c-0.4,0-0.8-0.4-0.8-0.8s0.3-0.8,0.8-0.8c0.5,0,3.2,0,8,0V4.4
						C10.3,4.4,7.6,4.4,7.1,4.4z"/>
				</g>
			</g>
		</g>
		<path d="M24,5.8H3.8c-0.2,0-0.4-0.2-0.4-0.4v0c0-0.2,0.2-0.4,0.4-0.4H24c0.2,0,0.4,0.2,0.4,0.4v0C24.4,5.6,24.2,5.8,24,5.8z"/>
		<path d="M24,9.8H3.8c-0.2,0-0.4-0.2-0.4-0.4v0C3.4,9.2,3.6,9,3.8,9H24c0.2,0,0.4,0.2,0.4,0.4v0C24.4,9.6,24.2,9.8,24,9.8z"/>
		<path d="M24,13.4H3.8c-0.2,0-0.4-0.2-0.4-0.4v0c0-0.2,0.2-0.4,0.4-0.4H24c0.2,0,0.4,0.2,0.4,0.4v0C24.4,13.3,24.2,13.4,24,13.4z"
			/>
	</g>
</g>
</svg>
