<?xml version="1.0" encoding="UTF-8" standalone="no"?>
<!DOCTYPE svg PUBLIC "-//W3C//DTD SVG 1.1//EN" "http://www.w3.org/Graphics/SVG/1.1/DTD/svg11.dtd">
<svg version="1.1" xmlns="http://www.w3.org/2000/svg" xmlns:xlink="http://www.w3.org/1999/xlink" preserveAspectRatio="xMidYMid meet" viewBox="0 0 640 640" width="640" height="640"><defs><path d="M115.47 0.02L115.7 0.04L115.92 0.07L116.14 0.11L116.35 0.15L116.56 0.2L116.77 0.26L116.98 0.33L117.18 0.41L117.37 0.49L117.56 0.58L117.75 0.67L117.93 0.78L118.11 0.88L118.28 1L118.45 1.12L118.61 1.25L118.77 1.38L118.92 1.52L119.06 1.66L119.2 1.81L119.34 1.96L119.46 2.12L119.58 2.28L119.7 2.45L119.8 2.62L119.9 2.8L120 2.98L120.08 3.16L120.16 3.35L120.23 3.54L120.3 3.73L120.35 3.93L120.4 4.13L120.44 4.33L120.47 4.54L120.49 4.75L120.5 4.96L120.51 5.17L120.51 71.86L120.5 72.07L120.49 72.28L120.47 72.49L120.44 72.7L120.4 72.9L120.35 73.11L120.29 73.3L120.23 73.5L120.16 73.69L120.08 73.88L119.99 74.06L119.89 74.24L119.79 74.42L119.68 74.59L119.57 74.76L119.45 74.92L119.32 75.08L119.19 75.23L119.05 75.38L118.9 75.52L118.75 75.66L118.59 75.79L118.43 75.92L118.26 76.04L118.09 76.15L117.91 76.26L117.73 76.36L117.54 76.46L117.35 76.55L117.15 76.63L116.95 76.7L116.75 76.77L116.55 76.83L116.34 76.88L116.12 76.93L115.91 76.96L115.69 76.99L115.47 77.02L115.24 77.03L115.02 77.03L54.78 77.03L39.08 93.85L38.92 94.01L38.77 94.16L38.61 94.3L38.44 94.43L38.28 94.55L38.1 94.67L37.93 94.78L37.75 94.88L37.57 94.97L37.39 95.05L37.2 95.13L37.01 95.2L36.82 95.26L36.63 95.31L36.44 95.36L36.25 95.39L36.05 95.42L35.86 95.44L35.66 95.45L35.46 95.46L35.27 95.46L35.07 95.44L34.88 95.42L34.68 95.4L34.49 95.36L34.3 95.32L34.11 95.26L33.92 95.2L33.73 95.14L33.54 95.06L33.36 94.98L33.18 94.88L33 94.78L32.83 94.68L32.66 94.56L32.49 94.43L32.33 94.3L32.17 94.16L32.01 94.01L31.86 93.85L16.43 77.03L5.47 77.03L5.24 77.03L5.02 77.02L4.8 76.99L4.58 76.96L4.36 76.93L4.15 76.88L3.94 76.83L3.73 76.77L3.53 76.7L3.33 76.63L3.14 76.54L2.95 76.45L2.76 76.36L2.58 76.26L2.4 76.15L2.23 76.03L2.06 75.91L1.9 75.79L1.74 75.65L1.59 75.52L1.45 75.37L1.31 75.23L1.18 75.07L1.05 74.91L0.93 74.75L0.81 74.58L0.71 74.41L0.61 74.24L0.51 74.06L0.43 73.87L0.35 73.68L0.28 73.49L0.21 73.3L0.16 73.1L0.11 72.9L0.07 72.7L0.04 72.49L0.02 72.28L0 72.07L0 71.86L0 5.17L0 5.03L0.01 4.89L0.03 4.75L0.05 4.61L0.09 4.47L0.12 4.33L0.17 4.19L0.22 4.05L0.28 3.91L0.34 3.77L0.42 3.64L0.49 3.5L0.58 3.37L0.67 3.23L0.77 3.1L0.88 2.97L0.99 2.84L1.11 2.71L1.24 2.58L1.37 2.45L1.51 2.32L1.66 2.19L1.82 2.06L1.98 1.93L2.14 1.81L2.32 1.68L2.5 1.56L2.69 1.43L2.89 1.31L3.09 1.19L3.3 1.07L3.51 0.94L3.74 0.82L3.97 0.7L4.2 0.59L4.45 0.47L4.7 0.35L4.96 0.23L5.22 0.12L5.49 0L115.02 0L115.25 0L115.47 0.02ZM5.48 71.9L19.26 71.9L35.45 90.19L53.19 71.9L115.03 71.9L115.03 5.14L5.48 5.14L5.48 71.9Z" id="c4w7oIIdo4"></path><path d="M66.29 51.31C66.29 54.72 63.52 57.5 60.11 57.5C56.7 57.5 53.92 54.72 53.92 51.31C53.92 49.11 53.92 38.08 53.92 18.24C53.94 18.24 53.95 18.24 53.95 18.24C54.24 13.05 58.55 8.91 63.82 8.91C69.09 8.91 73.39 13.05 73.69 18.24C73.69 18.24 73.7 18.24 73.72 18.24C73.72 37.75 73.72 48.58 73.72 50.75C73.72 58.4 67.68 64.62 60.25 64.62C52.83 64.62 46.79 58.4 46.79 50.75C46.79 48.51 46.79 37.3 46.79 17.12L50.19 17.12C50.19 37.3 50.19 48.51 50.19 50.75C50.19 56.53 54.71 61.23 60.25 61.23C65.8 61.23 70.32 56.53 70.32 50.75C70.32 47.56 70.32 22 70.32 18.81C70.32 15.22 67.4 12.31 63.82 12.31C60.24 12.31 57.32 15.22 57.32 18.81C57.32 22.06 57.32 48.06 57.32 51.31C57.32 52.85 58.57 54.09 60.11 54.09C61.64 54.09 62.89 52.85 62.89 51.31C62.89 49.37 62.89 39.65 62.89 22.17L66.29 22.17C66.29 39.65 66.29 49.37 66.29 51.31Z" id="ajdG70Gdq"></path></defs><g><g><g><use xlink:href="#c4w7oIIdo4" opacity="1" fill="#000000" fill-opacity="1"></use><g><use xlink:href="#c4w7oIIdo4" opacity="1" fill-opacity="0" stroke="#000000" stroke-width="1" stroke-opacity="0"></use></g></g><g><use xlink:href="#ajdG70Gdq" opacity="1" fill="#000000" fill-opacity="1"></use><g><use xlink:href="#ajdG70Gdq" opacity="1" fill-opacity="0" stroke="#000000" stroke-width="1" stroke-opacity="0"></use></g></g></g></g></svg>