<?xml version="1.0" encoding="utf-8"?>
<!-- Generator: Adobe Illustrator 21.0.0, SVG Export Plug-In . SVG Version: 6.00 Build 0)  -->
<svg version="1.1" id="Capa_1" xmlns="http://www.w3.org/2000/svg" xmlns:xlink="http://www.w3.org/1999/xlink" x="0px" y="0px"
	 viewBox="0 0 60 60" style="enable-background:new 0 0 60 60;" xml:space="preserve">
<style type="text/css">
	.st0{display:none;}
	.st1{display:inline;}
	.st2{fill:#FFFFFF;}
</style>
<g>
	<path d="M42.5,22h-25c-0.6,0-1,0.4-1,1s0.4,1,1,1h25c0.6,0,1-0.4,1-1S43.1,22,42.5,22z"/>
	<path d="M17.5,16h10c0.6,0,1-0.4,1-1s-0.4-1-1-1h-10c-0.6,0-1,0.4-1,1S16.9,16,17.5,16z"/>
	<path d="M42.5,30h-25c-0.6,0-1,0.4-1,1s0.4,1,1,1h25c0.6,0,1-0.4,1-1S43.1,30,42.5,30z"/>
	<path d="M42.5,38h-25c-0.6,0-1,0.4-1,1s0.4,1,1,1h25c0.6,0,1-0.4,1-1S43.1,38,42.5,38z"/>
	<path d="M42.5,46h-25c-0.6,0-1,0.4-1,1s0.4,1,1,1h25c0.6,0,1-0.4,1-1S43.1,46,42.5,46z"/>
	<path d="M38.9,0H6.5v60h47V14.6L38.9,0z M39.5,3.4L50.1,14H39.5V3.4z M8.5,58V2h29v14h14v42H8.5z"/>
</g>
<g class="st0">
	<g id="Clips_2_" class="st1">
		<g>
			<g>
				<path d="M38.7,56.1c-1.6,0-3.1-0.7-4.2-2c-2.2-2.6-2.2-6.6,0-9.1l11.4-13.1c1.4-1.6,3.3-2.5,5.3-2.5s3.9,0.9,5.3,2.5
					c2.7,3.2,2.7,8.3,0,11.5l-10.3,12c-0.4,0.5-1,0.8-1.7,0.8c-0.6,0-1.2-0.3-1.7-0.8c-0.1-0.2-0.3-0.4-0.4-0.6
					c-0.3,0.3-0.6,0.5-1,0.6C40.6,55.8,39.7,56.1,38.7,56.1z M37.8,48.1c-0.6,0.8-0.6,2,0,2.8c0.3,0.3,0.6,0.5,0.9,0.5
					s0.7-0.2,0.9-0.5l10.9-12.6c0.1-0.1,0.1-0.2,0.1-0.3l-9.2,10.6c-0.4,0.5-1,0.8-1.7,0.8c-0.6,0-1.2-0.3-1.7-0.8
					C38,48.5,37.9,48.3,37.8,48.1z"/>
				<path class="st2" d="M51.2,30.8c1.5,0,3,0.7,4.1,2c2.3,2.6,2.3,6.9,0,9.6L45,54.3c-0.1,0.2-0.3,0.2-0.5,0.2s-0.4-0.1-0.5-0.2
					c-0.3-0.3-0.3-0.9,0-1.2l10.3-12c1.7-2,1.7-5.2,0-7.2c-0.9-1-2-1.5-3.1-1.5S48.9,33,48.1,34L36.7,47.1c-1.1,1.3-1.1,3.5,0,4.8
					c0.6,0.7,1.3,1,2.1,1c0.7,0,1.5-0.3,2.1-1l10.9-12.6c0.6-0.7,0.6-1.7,0-2.4c-0.3-0.3-0.7-0.5-1-0.5s-0.7,0.2-1,0.5l-9.3,10.8
					C40.2,47.9,40,48,39.8,48c-0.2,0-0.4-0.1-0.5-0.2c-0.3-0.3-0.3-0.9,0-1.2l9.3-10.8c0.6-0.7,1.3-1,2.1-1c0.7,0,1.5,0.3,2.1,1
					c1.1,1.3,1.1,3.5,0,4.8L41.4,53.7c-0.1,0.2-0.3,0.2-0.5,0.2c-0.7,0.4-1.4,0.6-2.1,0.6c-1.1,0-2.2-0.5-3.1-1.5
					c-1.7-2-1.7-5.2,0-7.2l11.4-13.2C48.2,31.4,49.7,30.8,51.2,30.8 M51.2,27.8c-2.4,0-4.7,1.1-6.4,3L33.4,43.9
					c-2.7,3.1-2.7,8,0,11.1c1.4,1.6,3.3,2.5,5.3,2.5c1.1,0,2.3-0.3,3.3-0.8c0,0,0.1,0,0.1,0c0.7,0.5,1.5,0.8,2.3,0.8
					c1.1,0,2.1-0.5,2.8-1.3l10.3-12c3.3-3.8,3.3-9.7,0-13.5C55.9,28.9,53.6,27.8,51.2,27.8L51.2,27.8z"/>
			</g>
		</g>
	</g>
</g>
</svg>
