<?xml version="1.0" encoding="UTF-8" standalone="no"?>
<!DOCTYPE svg PUBLIC "-//W3C//DTD SVG 1.1//EN" "http://www.w3.org/Graphics/SVG/1.1/DTD/svg11.dtd">
<svg version="1.1" xmlns="http://www.w3.org/2000/svg" xmlns:xlink="http://www.w3.org/1999/xlink" preserveAspectRatio="xMidYMid meet" viewBox="0 0 640 640" width="640" height="640"><defs><path d="M22.22 2.02L22.32 2.05L22.42 2.09L22.51 2.14L22.59 2.19L22.67 2.26L22.74 2.33L22.81 2.41L22.87 2.5L22.91 2.59L22.95 2.69L22.98 2.79L22.99 2.9L23 3.01L23 15.99L22.99 16.1L22.98 16.21L22.95 16.31L22.91 16.41L22.86 16.5L22.81 16.59L22.74 16.67L22.67 16.74L22.59 16.81L22.5 16.86L22.41 16.91L22.31 16.95L22.21 16.98L22.11 16.99L22 17L11 17L8.13 20.28L8.06 20.35L7.98 20.42L7.89 20.47L7.8 20.52L7.71 20.55L7.62 20.58L7.52 20.59L7.43 20.59L7.33 20.58L7.24 20.55L7.15 20.52L7.06 20.48L6.97 20.42L6.89 20.35L6.82 20.28L4 17L2 17L1.89 16.99L1.78 16.98L1.68 16.95L1.58 16.91L1.49 16.86L1.41 16.81L1.33 16.74L1.26 16.67L1.19 16.59L1.14 16.5L1.09 16.41L1.05 16.31L1.02 16.21L1.01 16.1L1 15.99L1 3.01L1 2.93L1.02 2.86L1.04 2.79L1.07 2.72L1.11 2.65L1.16 2.58L1.22 2.51L1.29 2.44L1.36 2.38L1.45 2.31L1.54 2.25L1.64 2.18L1.75 2.12L1.87 2.06L2 2L22 2L22.11 2.01L22.22 2.02ZM2 16L4.52 16L7.47 19.56L10.71 16L22 16L22 3L2 3L2 16Z" id="c8o2nVw6X"></path><path d="M10.77 12.2C10.77 12.89 11.33 13.46 12.03 13.46C12.73 13.46 13.29 12.89 13.29 12.2C13.29 11.75 13.29 9.5 13.29 5.45C13.29 5.45 13.29 5.45 13.29 5.45C13.23 4.39 12.35 3.54 11.27 3.54C10.2 3.54 9.32 4.39 9.26 5.45C9.26 5.45 9.26 5.45 9.25 5.45C9.25 9.43 9.25 11.64 9.25 12.08C9.25 13.64 10.49 14.91 12 14.91C13.51 14.91 14.75 13.64 14.75 12.08C14.75 11.62 14.75 9.34 14.75 5.22L14.05 5.22C14.05 9.34 14.05 11.62 14.05 12.08C14.05 13.26 13.13 14.22 12 14.22C10.87 14.22 9.95 13.26 9.95 12.08C9.95 11.43 9.95 6.22 9.95 5.56C9.95 4.83 10.54 4.24 11.27 4.24C12 4.24 12.6 4.83 12.6 5.56C12.6 6.23 12.6 11.53 12.6 12.2C12.6 12.51 12.34 12.76 12.03 12.76C11.72 12.76 11.46 12.51 11.46 12.2C11.46 11.8 11.46 9.82 11.46 6.25L10.77 6.25C10.77 9.82 10.77 11.8 10.77 12.2Z" id="c1q9MThgPV"></path></defs><g><g><g><use xlink:href="#c8o2nVw6X" opacity="1" fill="#000000" fill-opacity="1"></use><g><use xlink:href="#c8o2nVw6X" opacity="1" fill-opacity="0" stroke="#000000" stroke-width="1" stroke-opacity="0"></use></g></g><g><use xlink:href="#c1q9MThgPV" opacity="1" fill="#000000" fill-opacity="1"></use><g><use xlink:href="#c1q9MThgPV" opacity="1" fill-opacity="0" stroke="#000000" stroke-width="1" stroke-opacity="0"></use></g></g></g></g></svg>